<?xml version="1.0" encoding="UTF-8" standalone="no"?>
<svg
   xmlns:dc="http://purl.org/dc/elements/1.1/"
   xmlns:cc="http://creativecommons.org/ns#"
   xmlns:rdf="http://www.w3.org/1999/02/22-rdf-syntax-ns#"
   xmlns:svg="http://www.w3.org/2000/svg"
   xmlns="http://www.w3.org/2000/svg"
   xmlns:sodipodi="http://sodipodi.sourceforge.net/DTD/sodipodi-0.dtd"
   xmlns:inkscape="http://www.inkscape.org/namespaces/inkscape"
   inkscape:export-ydpi="492.41"
   inkscape:export-xdpi="492.41"
   inkscape:export-filename="C:\Evan\Derek Prince\Logo\dp_pattern_01_transparent_blue.png"
   sodipodi:docname="logo_derek_prince_icon_01_blue_circle.svg"
   inkscape:version="1.0 (4035a4fb49, 2020-05-01)"
   id="svg8"
   version="1.1"
   viewBox="0 0 88.166061 88.166061"
   height="88.166061mm"
   width="88.166061mm">
  <defs
     id="defs2">
    <pattern
       id="pattern4694"
       patternTransform="matrix(0.26458333,0,0,0.26458333,108.52309,79.35392)"
       height="34.140519"
       width="34.140519"
       patternUnits="userSpaceOnUse">
      <g
         transform="matrix(3.7795276,0,0,3.7795276,-410.166,-299.92033)"
         id="g4684">
        <rect
           y="79.35392"
           x="108.52309"
           height="9.0330124"
           width="9.0330124"
           id="rect4690-7-5"
           style="display:inline;opacity:1;fill:#0f4c81;fill-opacity:1;fill-rule:nonzero;stroke:none;stroke-width:0.99999994;stroke-linecap:butt;stroke-linejoin:miter;stroke-miterlimit:4;stroke-dasharray:none;stroke-dashoffset:0;stroke-opacity:1;paint-order:normal" />
        <g
           transform="matrix(0.51941274,0,0,0.51941274,52.261385,43.444703)"
           id="g4589-7-7"
           style="display:inline;fill:#66ced6;fill-opacity:1;stroke-width:1.92525113">
          <path
             style="color:#000000;font-style:normal;font-variant:normal;font-weight:normal;font-stretch:normal;font-size:medium;line-height:normal;font-family:sans-serif;font-variant-ligatures:normal;font-variant-position:normal;font-variant-caps:normal;font-variant-numeric:normal;font-variant-alternates:normal;font-feature-settings:normal;text-indent:0;text-align:start;text-decoration:none;text-decoration-line:none;text-decoration-style:solid;text-decoration-color:#000000;letter-spacing:normal;word-spacing:normal;text-transform:none;writing-mode:lr-tb;direction:ltr;text-orientation:mixed;dominant-baseline:auto;baseline-shift:baseline;text-anchor:start;white-space:normal;shape-padding:0;clip-rule:nonzero;display:inline;overflow:visible;visibility:visible;opacity:1;isolation:auto;mix-blend-mode:normal;color-interpolation:sRGB;color-interpolation-filters:linearRGB;solid-color:#000000;solid-opacity:1;vector-effect:none;fill:#66ced6;fill-opacity:1;fill-rule:nonzero;stroke:none;stroke-width:12.22534466;stroke-linecap:butt;stroke-linejoin:miter;stroke-miterlimit:4;stroke-dasharray:none;stroke-dashoffset:0;stroke-opacity:1;color-rendering:auto;image-rendering:auto;shape-rendering:auto;text-rendering:auto;enable-background:accumulate"
             d="m 117.68498,78.404999 0.28649,1.06148 3.21551,7.1e-5 c 1.67438,3.7e-5 2.65412,1.339828 2.65412,2.65412 0,1.308741 -1.00832,2.65412 -2.65412,2.65412 h -1.58985 v -1.061585 h 1.58985 c 0.92979,0 1.5992,-0.773513 1.59254,-1.596781 -0.007,-0.813104 -0.66382,-1.588292 -1.59254,-1.588292 l -2.93274,-5e-6 0.28123,1.061913 h 2.65151 c 0.32561,0 0.52901,0.293553 0.53095,0.534873 0.002,0.231159 -0.20233,0.52671 -0.53095,0.52671 h -2.6515 v 3.184747 h 2.6515 c 2.22951,0 3.7157,-1.850659 3.7157,-3.715702 0,-1.859491 -1.465,-3.715701 -3.7157,-3.715701 z"
             id="path4821-5-96-5"
             inkscape:connector-curvature="0"
             sodipodi:nodetypes="ccsssccscsccscsccsssc" />
          <path
             style="color:#000000;font-style:normal;font-variant:normal;font-weight:normal;font-stretch:normal;font-size:medium;line-height:normal;font-family:sans-serif;font-variant-ligatures:normal;font-variant-position:normal;font-variant-caps:normal;font-variant-numeric:normal;font-variant-alternates:normal;font-feature-settings:normal;text-indent:0;text-align:start;text-decoration:none;text-decoration-line:none;text-decoration-style:solid;text-decoration-color:#000000;letter-spacing:normal;word-spacing:normal;text-transform:none;writing-mode:lr-tb;direction:ltr;text-orientation:mixed;dominant-baseline:auto;baseline-shift:baseline;text-anchor:start;white-space:normal;shape-padding:0;clip-rule:nonzero;display:inline;overflow:visible;visibility:visible;opacity:1;isolation:auto;mix-blend-mode:normal;color-interpolation:sRGB;color-interpolation-filters:linearRGB;solid-color:#000000;solid-opacity:1;vector-effect:none;fill:#66ced6;fill-opacity:1;fill-rule:nonzero;stroke:none;stroke-width:12.22534466;stroke-linecap:butt;stroke-linejoin:miter;stroke-miterlimit:4;stroke-dasharray:none;stroke-dashoffset:0;stroke-opacity:1;color-rendering:auto;image-rendering:auto;shape-rendering:auto;text-rendering:auto;enable-background:accumulate"
             d="m 109.12399,85.72952 1.06148,-0.286489 7e-5,-3.215515 c 4e-5,-1.674383 1.33983,-2.654119 2.65412,-2.654119 1.30875,0 2.65412,1.008324 2.65412,2.654119 v 1.589854 h -1.06158 v -1.589854 c 0,-0.929785 -0.77351,-1.599198 -1.59678,-1.592538 -0.8131,0.0066 -1.58829,0.663815 -1.58829,1.592538 l -1e-5,2.932738 1.06191,-0.28123 v -2.651508 c 0,-0.325609 0.29356,-0.529004 0.53488,-0.53095 0.23116,-0.002 0.52671,0.202333 0.52671,0.53095 v 2.651502 h 3.18474 v -2.651502 c 0,-2.229512 -1.85066,-3.7157 -3.7157,-3.7157 -1.85949,0 -3.7157,1.464998 -3.7157,3.7157 z"
             id="path4821-5-9-0-4"
             inkscape:connector-curvature="0"
             sodipodi:nodetypes="ccsssccscsccscsccsssc" />
          <path
             style="color:#000000;font-style:normal;font-variant:normal;font-weight:normal;font-stretch:normal;font-size:medium;line-height:normal;font-family:sans-serif;font-variant-ligatures:normal;font-variant-position:normal;font-variant-caps:normal;font-variant-numeric:normal;font-variant-alternates:normal;font-feature-settings:normal;text-indent:0;text-align:start;text-decoration:none;text-decoration-line:none;text-decoration-style:solid;text-decoration-color:#000000;letter-spacing:normal;word-spacing:normal;text-transform:none;writing-mode:lr-tb;direction:ltr;text-orientation:mixed;dominant-baseline:auto;baseline-shift:baseline;text-anchor:start;white-space:normal;shape-padding:0;clip-rule:nonzero;display:inline;overflow:visible;visibility:visible;opacity:1;isolation:auto;mix-blend-mode:normal;color-interpolation:sRGB;color-interpolation-filters:linearRGB;solid-color:#000000;solid-opacity:1;vector-effect:none;fill:#66ced6;fill-opacity:1;fill-rule:nonzero;stroke:none;stroke-width:12.22534466;stroke-linecap:butt;stroke-linejoin:miter;stroke-miterlimit:4;stroke-dasharray:none;stroke-dashoffset:0;stroke-opacity:1;color-rendering:auto;image-rendering:auto;shape-rendering:auto;text-rendering:auto;enable-background:accumulate"
             d="m 116.34167,77.254349 -0.28649,-1.061481 -3.21552,-7.1e-5 c -1.67438,-3.6e-5 -2.65412,-1.339828 -2.65412,-2.65412 0,-1.30874 1.00833,-2.654119 2.65412,-2.654119 h 1.58986 v 1.061585 h -1.58986 c -0.92978,0 -1.5992,0.773513 -1.59254,1.596781 0.007,0.813103 0.66382,1.588292 1.59254,1.588292 l 2.93274,5e-6 -0.28123,-1.061913 h -2.65151 c -0.32561,0 -0.529,-0.293554 -0.53095,-0.534873 -0.002,-0.231159 0.20233,-0.52671 0.53095,-0.52671 h 2.6515 v -3.184747 h -2.6515 c -2.22951,0 -3.7157,1.850659 -3.7157,3.715701 0,1.859492 1.465,3.715702 3.7157,3.715702 z"
             id="path4821-5-8-1-8"
             inkscape:connector-curvature="0"
             sodipodi:nodetypes="ccsssccscsccscsccsssc" />
          <path
             style="color:#000000;font-style:normal;font-variant:normal;font-weight:normal;font-stretch:normal;font-size:medium;line-height:normal;font-family:sans-serif;font-variant-ligatures:normal;font-variant-position:normal;font-variant-caps:normal;font-variant-numeric:normal;font-variant-alternates:normal;font-feature-settings:normal;text-indent:0;text-align:start;text-decoration:none;text-decoration-line:none;text-decoration-style:solid;text-decoration-color:#000000;letter-spacing:normal;word-spacing:normal;text-transform:none;writing-mode:lr-tb;direction:ltr;text-orientation:mixed;dominant-baseline:auto;baseline-shift:baseline;text-anchor:start;white-space:normal;shape-padding:0;clip-rule:nonzero;display:inline;overflow:visible;visibility:visible;opacity:1;isolation:auto;mix-blend-mode:normal;color-interpolation:sRGB;color-interpolation-filters:linearRGB;solid-color:#000000;solid-opacity:1;vector-effect:none;fill:#66ced6;fill-opacity:1;fill-rule:nonzero;stroke:none;stroke-width:12.22534466;stroke-linecap:butt;stroke-linejoin:miter;stroke-miterlimit:4;stroke-dasharray:none;stroke-dashoffset:0;stroke-opacity:1;color-rendering:auto;image-rendering:auto;shape-rendering:auto;text-rendering:auto;enable-background:accumulate"
             d="m 124.90265,69.929827 -1.06148,0.286489 -7e-5,3.215516 c -4e-5,1.674383 -1.33983,2.654119 -2.65412,2.654119 -1.30874,0 -2.65412,-1.008324 -2.65412,-2.654119 v -1.589855 h 1.06158 v 1.589855 c 0,0.929785 0.77351,1.599198 1.59678,1.592538 0.81311,-0.0066 1.5883,-0.663816 1.5883,-1.592538 v -2.932739 l -1.06191,0.28123 v 2.651509 c 0,0.325609 -0.29355,0.529004 -0.53487,0.53095 -0.23116,0.002 -0.52672,-0.202333 -0.52672,-0.53095 V 70.78033 h -3.18474 v 2.651502 c 0,2.229511 1.85066,3.7157 3.7157,3.7157 1.85949,0 3.7157,-1.464998 3.7157,-3.7157 z"
             id="path4821-5-9-5-2-6"
             inkscape:connector-curvature="0"
             sodipodi:nodetypes="ccsssccscsccscsccsssc" />
        </g>
      </g>
    </pattern>
    <pattern
       id="pattern5378"
       patternTransform="matrix(0.26458333,0,0,0.26458333,108.52309,89.537292)"
       height="34.140519"
       width="34.140519"
       patternUnits="userSpaceOnUse">
      <g
         transform="matrix(3.7795276,0,0,3.7795276,-410.166,-338.40866)"
         id="g5373">
        <rect
           y="89.537292"
           x="108.52309"
           height="9.0330124"
           width="9.0330124"
           id="rect4690-7-0"
           style="display:inline;opacity:1;fill:none;fill-opacity:1;fill-rule:nonzero;stroke:none;stroke-width:1;stroke-linecap:butt;stroke-linejoin:miter;stroke-miterlimit:4;stroke-dasharray:none;stroke-dashoffset:0;stroke-opacity:1;paint-order:normal" />
        <g
           transform="matrix(0.51941275,0,0,0.51941275,52.261379,53.628073)"
           id="g4589-7-5"
           style="display:inline;fill:#000000;stroke-width:1.92525113">
          <path
             style="color:#000000;font-style:normal;font-variant:normal;font-weight:normal;font-stretch:normal;font-size:medium;line-height:normal;font-family:sans-serif;font-variant-ligatures:normal;font-variant-position:normal;font-variant-caps:normal;font-variant-numeric:normal;font-variant-alternates:normal;font-feature-settings:normal;text-indent:0;text-align:start;text-decoration:none;text-decoration-line:none;text-decoration-style:solid;text-decoration-color:#000000;letter-spacing:normal;word-spacing:normal;text-transform:none;writing-mode:lr-tb;direction:ltr;text-orientation:mixed;dominant-baseline:auto;baseline-shift:baseline;text-anchor:start;white-space:normal;shape-padding:0;clip-rule:nonzero;display:inline;overflow:visible;visibility:visible;opacity:1;isolation:auto;mix-blend-mode:normal;color-interpolation:sRGB;color-interpolation-filters:linearRGB;solid-color:#000000;solid-opacity:1;vector-effect:none;fill:#000000;fill-opacity:1;fill-rule:nonzero;stroke:none;stroke-width:12.22534466;stroke-linecap:butt;stroke-linejoin:miter;stroke-miterlimit:4;stroke-dasharray:none;stroke-dashoffset:0;stroke-opacity:1;color-rendering:auto;image-rendering:auto;shape-rendering:auto;text-rendering:auto;enable-background:accumulate"
             d="m 117.68498,78.404999 0.28649,1.06148 3.21551,7.1e-5 c 1.67438,3.7e-5 2.65412,1.339828 2.65412,2.65412 0,1.308741 -1.00832,2.65412 -2.65412,2.65412 h -1.58985 v -1.061585 h 1.58985 c 0.92979,0 1.5992,-0.773513 1.59254,-1.596781 -0.007,-0.813104 -0.66382,-1.588292 -1.59254,-1.588292 l -2.93274,-5e-6 0.28123,1.061913 h 2.65151 c 0.32561,0 0.52901,0.293553 0.53095,0.534873 0.002,0.231159 -0.20233,0.52671 -0.53095,0.52671 h -2.6515 v 3.184747 h 2.6515 c 2.22951,0 3.7157,-1.850659 3.7157,-3.715702 0,-1.859491 -1.465,-3.715701 -3.7157,-3.715701 z"
             id="path4821-5-96-8"
             inkscape:connector-curvature="0"
             sodipodi:nodetypes="ccsssccscsccscsccsssc" />
          <path
             style="color:#000000;font-style:normal;font-variant:normal;font-weight:normal;font-stretch:normal;font-size:medium;line-height:normal;font-family:sans-serif;font-variant-ligatures:normal;font-variant-position:normal;font-variant-caps:normal;font-variant-numeric:normal;font-variant-alternates:normal;font-feature-settings:normal;text-indent:0;text-align:start;text-decoration:none;text-decoration-line:none;text-decoration-style:solid;text-decoration-color:#000000;letter-spacing:normal;word-spacing:normal;text-transform:none;writing-mode:lr-tb;direction:ltr;text-orientation:mixed;dominant-baseline:auto;baseline-shift:baseline;text-anchor:start;white-space:normal;shape-padding:0;clip-rule:nonzero;display:inline;overflow:visible;visibility:visible;opacity:1;isolation:auto;mix-blend-mode:normal;color-interpolation:sRGB;color-interpolation-filters:linearRGB;solid-color:#000000;solid-opacity:1;vector-effect:none;fill:#000000;fill-opacity:1;fill-rule:nonzero;stroke:none;stroke-width:12.22534466;stroke-linecap:butt;stroke-linejoin:miter;stroke-miterlimit:4;stroke-dasharray:none;stroke-dashoffset:0;stroke-opacity:1;color-rendering:auto;image-rendering:auto;shape-rendering:auto;text-rendering:auto;enable-background:accumulate"
             d="m 109.12399,85.72952 1.06148,-0.286489 7e-5,-3.215515 c 4e-5,-1.674383 1.33983,-2.654119 2.65412,-2.654119 1.30875,0 2.65412,1.008324 2.65412,2.654119 v 1.589854 h -1.06158 v -1.589854 c 0,-0.929785 -0.77351,-1.599198 -1.59678,-1.592538 -0.8131,0.0066 -1.58829,0.663815 -1.58829,1.592538 l -1e-5,2.932738 1.06191,-0.28123 v -2.651508 c 0,-0.325609 0.29356,-0.529004 0.53488,-0.53095 0.23116,-0.002 0.52671,0.202333 0.52671,0.53095 v 2.651502 h 3.18474 v -2.651502 c 0,-2.229512 -1.85066,-3.7157 -3.7157,-3.7157 -1.85949,0 -3.7157,1.464998 -3.7157,3.7157 z"
             id="path4821-5-9-0-77"
             inkscape:connector-curvature="0"
             sodipodi:nodetypes="ccsssccscsccscsccsssc" />
          <path
             style="color:#000000;font-style:normal;font-variant:normal;font-weight:normal;font-stretch:normal;font-size:medium;line-height:normal;font-family:sans-serif;font-variant-ligatures:normal;font-variant-position:normal;font-variant-caps:normal;font-variant-numeric:normal;font-variant-alternates:normal;font-feature-settings:normal;text-indent:0;text-align:start;text-decoration:none;text-decoration-line:none;text-decoration-style:solid;text-decoration-color:#000000;letter-spacing:normal;word-spacing:normal;text-transform:none;writing-mode:lr-tb;direction:ltr;text-orientation:mixed;dominant-baseline:auto;baseline-shift:baseline;text-anchor:start;white-space:normal;shape-padding:0;clip-rule:nonzero;display:inline;overflow:visible;visibility:visible;opacity:1;isolation:auto;mix-blend-mode:normal;color-interpolation:sRGB;color-interpolation-filters:linearRGB;solid-color:#000000;solid-opacity:1;vector-effect:none;fill:#000000;fill-opacity:1;fill-rule:nonzero;stroke:none;stroke-width:12.22534466;stroke-linecap:butt;stroke-linejoin:miter;stroke-miterlimit:4;stroke-dasharray:none;stroke-dashoffset:0;stroke-opacity:1;color-rendering:auto;image-rendering:auto;shape-rendering:auto;text-rendering:auto;enable-background:accumulate"
             d="m 116.34167,77.254349 -0.28649,-1.061481 -3.21552,-7.1e-5 c -1.67438,-3.6e-5 -2.65412,-1.339828 -2.65412,-2.65412 0,-1.30874 1.00833,-2.654119 2.65412,-2.654119 h 1.58986 v 1.061585 h -1.58986 c -0.92978,0 -1.5992,0.773513 -1.59254,1.596781 0.007,0.813103 0.66382,1.588292 1.59254,1.588292 l 2.93274,5e-6 -0.28123,-1.061913 h -2.65151 c -0.32561,0 -0.529,-0.293554 -0.53095,-0.534873 -0.002,-0.231159 0.20233,-0.52671 0.53095,-0.52671 h 2.6515 v -3.184747 h -2.6515 c -2.22951,0 -3.7157,1.850659 -3.7157,3.715701 0,1.859492 1.465,3.715702 3.7157,3.715702 z"
             id="path4821-5-8-1-1"
             inkscape:connector-curvature="0"
             sodipodi:nodetypes="ccsssccscsccscsccsssc" />
          <path
             style="color:#000000;font-style:normal;font-variant:normal;font-weight:normal;font-stretch:normal;font-size:medium;line-height:normal;font-family:sans-serif;font-variant-ligatures:normal;font-variant-position:normal;font-variant-caps:normal;font-variant-numeric:normal;font-variant-alternates:normal;font-feature-settings:normal;text-indent:0;text-align:start;text-decoration:none;text-decoration-line:none;text-decoration-style:solid;text-decoration-color:#000000;letter-spacing:normal;word-spacing:normal;text-transform:none;writing-mode:lr-tb;direction:ltr;text-orientation:mixed;dominant-baseline:auto;baseline-shift:baseline;text-anchor:start;white-space:normal;shape-padding:0;clip-rule:nonzero;display:inline;overflow:visible;visibility:visible;opacity:1;isolation:auto;mix-blend-mode:normal;color-interpolation:sRGB;color-interpolation-filters:linearRGB;solid-color:#000000;solid-opacity:1;vector-effect:none;fill:#000000;fill-opacity:1;fill-rule:nonzero;stroke:none;stroke-width:12.22534466;stroke-linecap:butt;stroke-linejoin:miter;stroke-miterlimit:4;stroke-dasharray:none;stroke-dashoffset:0;stroke-opacity:1;color-rendering:auto;image-rendering:auto;shape-rendering:auto;text-rendering:auto;enable-background:accumulate"
             d="m 124.90265,69.929827 -1.06148,0.286489 -7e-5,3.215516 c -4e-5,1.674383 -1.33983,2.654119 -2.65412,2.654119 -1.30874,0 -2.65412,-1.008324 -2.65412,-2.654119 v -1.589855 h 1.06158 v 1.589855 c 0,0.929785 0.77351,1.599198 1.59678,1.592538 0.81311,-0.0066 1.5883,-0.663816 1.5883,-1.592538 v -2.932739 l -1.06191,0.28123 v 2.651509 c 0,0.325609 -0.29355,0.529004 -0.53487,0.53095 -0.23116,0.002 -0.52672,-0.202333 -0.52672,-0.53095 V 70.78033 h -3.18474 v 2.651502 c 0,2.229511 1.85066,3.7157 3.7157,3.7157 1.85949,0 3.7157,-1.464998 3.7157,-3.7157 z"
             id="path4821-5-9-5-2-8"
             inkscape:connector-curvature="0"
             sodipodi:nodetypes="ccsssccscsccscsccsssc" />
        </g>
      </g>
    </pattern>
    <pattern
       id="pattern4618"
       patternTransform="matrix(0.26458333,0,0,0.26458333,118.89388,90.284058)"
       height="34.140519"
       width="34.140519"
       patternUnits="userSpaceOnUse">
      <rect
         style="display:inline;opacity:1;fill:none;fill-opacity:1;fill-rule:nonzero;stroke:none;stroke-width:3.77952766;stroke-linecap:butt;stroke-linejoin:miter;stroke-miterlimit:4;stroke-dasharray:none;stroke-dashoffset:0;stroke-opacity:1;paint-order:normal"
         id="rect4690-7-06-2"
         width="34.140518"
         height="34.140518"
         x="0"
         y="0"
         inkscape:export-filename="C:\Evan\Derek Prince\Logo\Presentation\Resources\g4589-7-2.png"
         inkscape:export-xdpi="5623.8198"
         inkscape:export-ydpi="5623.8198" />
      <g
         style="display:inline;fill:#0f4c81;fill-opacity:1;stroke-width:1.92525113"
         id="g4589-7-2-4"
         transform="matrix(1.9631348,0,0,1.9631348,-212.64264,-135.71987)"
         inkscape:export-filename="C:\Evan\Derek Prince\Logo\Presentation\Resources\g4589-7-2.png"
         inkscape:export-xdpi="5623.8198"
         inkscape:export-ydpi="5623.8198">
        <path
           sodipodi:nodetypes="ccsssccscsccscsccsssc"
           inkscape:connector-curvature="0"
           id="path4821-5-96-59-2"
           d="m 117.68498,78.404999 0.28649,1.06148 3.21551,7.1e-5 c 1.67438,3.7e-5 2.65412,1.339828 2.65412,2.65412 0,1.308741 -1.00832,2.65412 -2.65412,2.65412 h -1.58985 v -1.061585 h 1.58985 c 0.92979,0 1.5992,-0.773513 1.59254,-1.596781 -0.007,-0.813104 -0.66382,-1.588292 -1.59254,-1.588292 l -2.93274,-5e-6 0.28123,1.061913 h 2.65151 c 0.32561,0 0.52901,0.293553 0.53095,0.534873 0.002,0.231159 -0.20233,0.52671 -0.53095,0.52671 h -2.6515 v 3.184747 h 2.6515 c 2.22951,0 3.7157,-1.850659 3.7157,-3.715702 0,-1.859491 -1.465,-3.715701 -3.7157,-3.715701 z"
           style="color:#000000;font-style:normal;font-variant:normal;font-weight:normal;font-stretch:normal;font-size:medium;line-height:normal;font-family:sans-serif;font-variant-ligatures:normal;font-variant-position:normal;font-variant-caps:normal;font-variant-numeric:normal;font-variant-alternates:normal;font-feature-settings:normal;text-indent:0;text-align:start;text-decoration:none;text-decoration-line:none;text-decoration-style:solid;text-decoration-color:#000000;letter-spacing:normal;word-spacing:normal;text-transform:none;writing-mode:lr-tb;direction:ltr;text-orientation:mixed;dominant-baseline:auto;baseline-shift:baseline;text-anchor:start;white-space:normal;shape-padding:0;clip-rule:nonzero;display:inline;overflow:visible;visibility:visible;opacity:1;isolation:auto;mix-blend-mode:normal;color-interpolation:sRGB;color-interpolation-filters:linearRGB;solid-color:#000000;solid-opacity:1;vector-effect:none;fill:#0f4c81;fill-opacity:1;fill-rule:nonzero;stroke:none;stroke-width:12.22534466;stroke-linecap:butt;stroke-linejoin:miter;stroke-miterlimit:4;stroke-dasharray:none;stroke-dashoffset:0;stroke-opacity:1;color-rendering:auto;image-rendering:auto;shape-rendering:auto;text-rendering:auto;enable-background:accumulate" />
        <path
           sodipodi:nodetypes="ccsssccscsccscsccsssc"
           inkscape:connector-curvature="0"
           id="path4821-5-9-0-9-6"
           d="m 109.12399,85.72952 1.06148,-0.286489 7e-5,-3.215515 c 4e-5,-1.674383 1.33983,-2.654119 2.65412,-2.654119 1.30875,0 2.65412,1.008324 2.65412,2.654119 v 1.589854 h -1.06158 v -1.589854 c 0,-0.929785 -0.77351,-1.599198 -1.59678,-1.592538 -0.8131,0.0066 -1.58829,0.663815 -1.58829,1.592538 l -1e-5,2.932738 1.06191,-0.28123 v -2.651508 c 0,-0.325609 0.29356,-0.529004 0.53488,-0.53095 0.23116,-0.002 0.52671,0.202333 0.52671,0.53095 v 2.651502 h 3.18474 v -2.651502 c 0,-2.229512 -1.85066,-3.7157 -3.7157,-3.7157 -1.85949,0 -3.7157,1.464998 -3.7157,3.7157 z"
           style="color:#000000;font-style:normal;font-variant:normal;font-weight:normal;font-stretch:normal;font-size:medium;line-height:normal;font-family:sans-serif;font-variant-ligatures:normal;font-variant-position:normal;font-variant-caps:normal;font-variant-numeric:normal;font-variant-alternates:normal;font-feature-settings:normal;text-indent:0;text-align:start;text-decoration:none;text-decoration-line:none;text-decoration-style:solid;text-decoration-color:#000000;letter-spacing:normal;word-spacing:normal;text-transform:none;writing-mode:lr-tb;direction:ltr;text-orientation:mixed;dominant-baseline:auto;baseline-shift:baseline;text-anchor:start;white-space:normal;shape-padding:0;clip-rule:nonzero;display:inline;overflow:visible;visibility:visible;opacity:1;isolation:auto;mix-blend-mode:normal;color-interpolation:sRGB;color-interpolation-filters:linearRGB;solid-color:#000000;solid-opacity:1;vector-effect:none;fill:#0f4c81;fill-opacity:1;fill-rule:nonzero;stroke:none;stroke-width:12.22534466;stroke-linecap:butt;stroke-linejoin:miter;stroke-miterlimit:4;stroke-dasharray:none;stroke-dashoffset:0;stroke-opacity:1;color-rendering:auto;image-rendering:auto;shape-rendering:auto;text-rendering:auto;enable-background:accumulate" />
        <path
           sodipodi:nodetypes="ccsssccscsccscsccsssc"
           inkscape:connector-curvature="0"
           id="path4821-5-8-1-9-4"
           d="m 116.34167,77.254349 -0.28649,-1.061481 -3.21552,-7.1e-5 c -1.67438,-3.6e-5 -2.65412,-1.339828 -2.65412,-2.65412 0,-1.30874 1.00833,-2.654119 2.65412,-2.654119 h 1.58986 v 1.061585 h -1.58986 c -0.92978,0 -1.5992,0.773513 -1.59254,1.596781 0.007,0.813103 0.66382,1.588292 1.59254,1.588292 l 2.93274,5e-6 -0.28123,-1.061913 h -2.65151 c -0.32561,0 -0.529,-0.293554 -0.53095,-0.534873 -0.002,-0.231159 0.20233,-0.52671 0.53095,-0.52671 h 2.6515 v -3.184747 h -2.6515 c -2.22951,0 -3.7157,1.850659 -3.7157,3.715701 0,1.859492 1.465,3.715702 3.7157,3.715702 z"
           style="color:#000000;font-style:normal;font-variant:normal;font-weight:normal;font-stretch:normal;font-size:medium;line-height:normal;font-family:sans-serif;font-variant-ligatures:normal;font-variant-position:normal;font-variant-caps:normal;font-variant-numeric:normal;font-variant-alternates:normal;font-feature-settings:normal;text-indent:0;text-align:start;text-decoration:none;text-decoration-line:none;text-decoration-style:solid;text-decoration-color:#000000;letter-spacing:normal;word-spacing:normal;text-transform:none;writing-mode:lr-tb;direction:ltr;text-orientation:mixed;dominant-baseline:auto;baseline-shift:baseline;text-anchor:start;white-space:normal;shape-padding:0;clip-rule:nonzero;display:inline;overflow:visible;visibility:visible;opacity:1;isolation:auto;mix-blend-mode:normal;color-interpolation:sRGB;color-interpolation-filters:linearRGB;solid-color:#000000;solid-opacity:1;vector-effect:none;fill:#0f4c81;fill-opacity:1;fill-rule:nonzero;stroke:none;stroke-width:12.22534466;stroke-linecap:butt;stroke-linejoin:miter;stroke-miterlimit:4;stroke-dasharray:none;stroke-dashoffset:0;stroke-opacity:1;color-rendering:auto;image-rendering:auto;shape-rendering:auto;text-rendering:auto;enable-background:accumulate" />
        <path
           sodipodi:nodetypes="ccsssccscsccscsccsssc"
           inkscape:connector-curvature="0"
           id="path4821-5-9-5-2-2-4"
           d="m 124.90265,69.929827 -1.06148,0.286489 -7e-5,3.215516 c -4e-5,1.674383 -1.33983,2.654119 -2.65412,2.654119 -1.30874,0 -2.65412,-1.008324 -2.65412,-2.654119 v -1.589855 h 1.06158 v 1.589855 c 0,0.929785 0.77351,1.599198 1.59678,1.592538 0.81311,-0.0066 1.5883,-0.663816 1.5883,-1.592538 v -2.932739 l -1.06191,0.28123 v 2.651509 c 0,0.325609 -0.29355,0.529004 -0.53487,0.53095 -0.23116,0.002 -0.52672,-0.202333 -0.52672,-0.53095 V 70.78033 h -3.18474 v 2.651502 c 0,2.229511 1.85066,3.7157 3.7157,3.7157 1.85949,0 3.7157,-1.464998 3.7157,-3.7157 z"
           style="color:#000000;font-style:normal;font-variant:normal;font-weight:normal;font-stretch:normal;font-size:medium;line-height:normal;font-family:sans-serif;font-variant-ligatures:normal;font-variant-position:normal;font-variant-caps:normal;font-variant-numeric:normal;font-variant-alternates:normal;font-feature-settings:normal;text-indent:0;text-align:start;text-decoration:none;text-decoration-line:none;text-decoration-style:solid;text-decoration-color:#000000;letter-spacing:normal;word-spacing:normal;text-transform:none;writing-mode:lr-tb;direction:ltr;text-orientation:mixed;dominant-baseline:auto;baseline-shift:baseline;text-anchor:start;white-space:normal;shape-padding:0;clip-rule:nonzero;display:inline;overflow:visible;visibility:visible;opacity:1;isolation:auto;mix-blend-mode:normal;color-interpolation:sRGB;color-interpolation-filters:linearRGB;solid-color:#000000;solid-opacity:1;vector-effect:none;fill:#0f4c81;fill-opacity:1;fill-rule:nonzero;stroke:none;stroke-width:12.22534466;stroke-linecap:butt;stroke-linejoin:miter;stroke-miterlimit:4;stroke-dasharray:none;stroke-dashoffset:0;stroke-opacity:1;color-rendering:auto;image-rendering:auto;shape-rendering:auto;text-rendering:auto;enable-background:accumulate" />
      </g>
    </pattern>
  </defs>
  <sodipodi:namedview
     inkscape:document-rotation="0"
     inkscape:window-maximized="1"
     inkscape:window-y="-8"
     inkscape:window-x="1912"
     inkscape:window-height="1017"
     inkscape:window-width="1920"
     showgrid="false"
     inkscape:current-layer="layer1"
     inkscape:document-units="mm"
     inkscape:cy="296.06577"
     inkscape:cx="342.21854"
     inkscape:zoom="0.59714111"
     inkscape:pageshadow="2"
     inkscape:pageopacity="0.0"
     borderopacity="1.0"
     bordercolor="#666666"
     pagecolor="#ffffff"
     id="base" />
  <metadata
     id="metadata5">
    <rdf:RDF>
      <cc:Work
         rdf:about="">
        <dc:format>image/svg+xml</dc:format>
        <dc:type
           rdf:resource="http://purl.org/dc/dcmitype/StillImage" />
        <dc:title></dc:title>
      </cc:Work>
    </rdf:RDF>
  </metadata>
  <g
     style="display:inline"
     transform="translate(-30.90593,-63.536713)"
     inkscape:label="Icon"
     id="layer1"
     inkscape:groupmode="layer">
    <path
       transform="matrix(0.26458333,0,0,0.26458333,30.90593,63.536713)"
       d="M 165.83984,10.048828 A 156.56515,156.56515 0 0 0 10.048828,166.61328 156.56515,156.56515 0 0 0 166.61328,323.17773 156.56515,156.56515 0 0 0 323.17773,166.61328 156.56515,156.56515 0 0 0 166.61328,10.048828 a 156.56515,156.56515 0 0 0 -0.77344,0 z m -1.49609,77.63086 c 47.81174,0 78.93164,39.432312 78.93164,78.933592 0,39.6192 -31.56996,78.93164 -78.93164,78.93164 h -56.32617 v -67.65234 h 56.32617 c 6.98086,0 11.31898,-6.27894 11.2793,-11.18946 -0.0415,-5.12636 -4.36231,-11.36132 -11.2793,-11.36132 h -56.32617 l -5.97461,-22.5586 h 62.30078 c 19.72898,0 33.69061,16.46746 33.83008,33.74024 0.14154,17.48874 -14.07861,33.91992 -33.83008,33.91992 h -33.77344 v 22.55078 h 33.77344 c 34.96176,0 56.38086,-28.57918 56.38086,-56.38086 0,-27.91956 -20.81188,-56.38202 -56.38086,-56.38281 H 96.035156 L 89.949219,87.681641 Z"
       style="display:inline;fill:#0f4c81;stroke-width:4.47141;stroke-linecap:round"
       id="path854" />
  </g>
</svg>
